<svg width="56" height="56" viewBox="0 0 56 56" fill="none" xmlns="http://www.w3.org/2000/svg">
<g id="Outline/Files/Document">
<g id="Icon">
<path d="M36.7501 30.3333C36.7501 29.3668 35.9666 28.5833 35.0001 28.5833H21.0001C20.0336 28.5833 19.2501 29.3668 19.2501 30.3333C19.2501 31.2998 20.0336 32.0833 21.0001 32.0833H35.0001C35.9666 32.0833 36.7501 31.2998 36.7501 30.3333Z" fill="#004799"/>
<path d="M36.7501 39.6667C36.7501 38.7002 35.9666 37.9167 35.0001 37.9167H21.0001C20.0336 37.9167 19.2501 38.7002 19.2501 39.6667C19.2501 40.6332 20.0336 41.4167 21.0001 41.4167H35.0001C35.9666 41.4167 36.7501 40.6332 36.7501 39.6667Z" fill="#004799"/>
<path fill-rule="evenodd" clip-rule="evenodd" d="M16.3334 5.25C12.7896 5.25 9.91675 8.12284 9.91675 11.6667V44.3333C9.91675 47.8772 12.7896 50.75 16.3334 50.75H39.6667C43.2106 50.75 46.0834 47.8772 46.0834 44.3333V18.5912C46.0834 17.7027 45.7936 16.8385 45.258 16.1296L38.2632 6.87176C37.4915 5.85036 36.2854 5.25 35.0052 5.25H16.3334ZM13.4167 11.6667C13.4167 10.0558 14.7226 8.75 16.3334 8.75H33.2501V19.0098C33.2501 19.9763 34.0336 20.7598 35.0001 20.7598H42.5834V44.3333C42.5834 45.9442 41.2776 47.25 39.6667 47.25H16.3334C14.7226 47.25 13.4167 45.9442 13.4167 44.3333V11.6667Z" fill="#004799"/>
</g>
</g>
</svg>
