<svg width="56" height="56" viewBox="0 0 56 56" fill="none" xmlns="http://www.w3.org/2000/svg">
<g id="Outline/Communication/Send">
<path id="Icon" fill-rule="evenodd" clip-rule="evenodd" d="M50.75 28C50.75 28.6355 50.4054 29.2211 49.8499 29.5298L44.5244 32.4884C33.9978 38.3365 22.9011 43.0936 11.4072 46.6854L9.85532 47.1704C9.32395 47.3364 8.74528 47.2397 8.29674 46.91C7.84821 46.5802 7.58333 46.0567 7.58333 45.5L7.58333 32.0833C7.58333 31.171 8.2843 30.4117 9.19378 30.3389L9.72421 30.2965C14.7443 29.8949 19.7257 29.1267 24.6288 27.9993C19.6568 26.8562 14.6044 26.0826 9.51277 25.686L9.19743 25.6614C8.2864 25.5904 7.58334 24.8305 7.58334 23.9167L7.58334 10.5C7.58334 9.94331 7.84821 9.41981 8.29675 9.09005C8.74528 8.7603 9.32395 8.66362 9.85531 8.82967L11.4072 9.31462C22.9011 12.9065 33.9978 17.6635 44.5244 23.5117L49.8499 26.4702C50.4054 26.7789 50.75 27.3645 50.75 28ZM45.3965 28L42.8247 26.5712C32.7265 20.9611 22.0931 16.3754 11.0833 12.8821L11.0833 22.3057C17.9202 22.9223 24.6827 24.197 31.2767 26.1128L31.9882 26.3195C32.7364 26.5369 33.2508 27.2226 33.25 28.0017C33.2492 28.7808 32.7335 29.4656 31.985 29.6815L31.0736 29.9443C24.5439 31.8276 17.8501 33.0829 11.0833 33.6934L11.0833 43.118C22.0931 39.6247 32.7265 35.0389 42.8247 29.4288L45.3965 28Z" fill="#004799"/>
</g>
</svg>
