<svg width="56" height="56" viewBox="0 0 56 56" fill="none" xmlns="http://www.w3.org/2000/svg">
<g id="Outline/Files/File-upload">
<g id="Icon">
<path fill-rule="evenodd" clip-rule="evenodd" d="M9.91675 11.6667C9.91675 8.12284 12.7896 5.25 16.3334 5.25H34.9694C36.2848 5.25 37.5196 5.88367 38.2866 6.95228L45.3173 16.7474C45.8155 17.4414 46.0834 18.2742 46.0834 19.1284V44.3333C46.0834 47.8772 43.2106 50.75 39.6667 50.75H16.3334C12.7896 50.75 9.91675 47.8772 9.91675 44.3333V11.6667ZM16.3334 8.75C14.7226 8.75 13.4167 10.0558 13.4167 11.6667V44.3333C13.4167 45.9442 14.7226 47.25 16.3334 47.25H39.6667C41.2776 47.25 42.5834 45.9442 42.5834 44.3333V20.7598H35.0001C34.0336 20.7598 33.2501 19.9763 33.2501 19.0098V8.75H16.3334Z" fill="#004799"/>
<path d="M35.2 30.8432C34.5962 31.5979 33.495 31.7203 32.7403 31.1165L29.7502 28.7245V36.75C29.7502 37.7165 28.9667 38.5 28.0002 38.5C27.0337 38.5 26.2502 37.7165 26.2502 36.75V28.7244L23.26 31.1165C22.5053 31.7203 21.4041 31.5979 20.8003 30.8432C20.1965 30.0885 20.3189 28.9872 21.0736 28.3835L26.9007 23.7218C27.1976 23.4817 27.5747 23.3368 27.9855 23.3334C27.9904 23.3334 27.9953 23.3333 28.0002 23.3333L28.0059 23.3333C28.4238 23.3347 28.8072 23.4825 29.1075 23.7281L34.9267 28.3835C35.6814 28.9872 35.8038 30.0885 35.2 30.8432Z" fill="#004799"/>
</g>
</g>
</svg>
